<svg xmlns="http://www.w3.org/2000/svg" version="1.1" xmlns:xlink="http://www.w3.org/1999/xlink" xmlns:svgjs="http://svgjs.dev/svgjs" width="300.000000pt" height="425.000000pt"><svg version="1.0" xmlns="http://www.w3.org/2000/svg" width="300.000000pt" height="425.000000pt" viewBox="0 0 300.000000 425.000000" preserveAspectRatio="xMidYMid meet">
<metadata>
Created by potrace 1.10, written by Peter Selinger 2001-2011
</metadata>
<g transform="translate(0.000000,425.000000) scale(0.100000,-0.100000)" fill="#000000" stroke="none">
<path d="M1453 3974 c26 -14 45 -29 42 -34 -3 -5 0 -7 8 -4 8 3 17 -2 20 -10
4 -9 13 -16 22 -16 8 0 15 -4 15 -10 0 -5 7 -10 15 -10 8 0 14 -6 13 -12 -2
-7 6 -13 17 -13 11 -1 19 -6 18 -13 -2 -7 2 -12 7 -12 6 0 10 -4 10 -10 0 -5
-31 -7 -77 -4 -78 5 -120 5 -180 0 -18 -1 -33 0 -33 3 0 3 -14 14 -31 23 l-30
18 20 -28 20 -28 -66 -22 c-36 -12 -69 -19 -73 -17 -4 3 -19 -6 -33 -19 -30
-28 -97 -42 -97 -20 0 18 -14 18 -30 -2 -11 -12 -72 -44 -86 -44 -2 0 -4 7 -4
15 0 8 -5 15 -12 15 -7 0 -6 6 4 18 9 9 13 23 10 31 -3 8 0 11 7 7 6 -4 11 -1
11 6 0 8 5 19 11 25 13 13 50 93 43 93 -9 0 -80 -117 -114 -188 -30 -64 -38
-73 -67 -78 -18 -3 -37 -11 -41 -18 -8 -13 -74 -48 -83 -44 -4 2 -15 -4 -25
-13 -11 -9 -32 -24 -49 -32 -16 -8 -47 -31 -67 -50 -21 -19 -40 -33 -43 -31
-3 2 -3 1 0 -3 3 -4 -5 -18 -18 -32 -13 -14 -35 -46 -48 -71 -13 -25 -28 -51
-33 -59 -14 -18 -69 -173 -68 -191 0 -3 -4 -13 -9 -22 -19 -36 -12 -132 12
-178 13 -23 28 -51 34 -61 5 -11 13 -19 18 -19 4 0 5 -6 1 -12 -5 -10 -4 -10
6 -1 11 10 8 18 -12 45 -38 50 -58 94 -58 128 0 35 32 159 57 222 28 71 146
258 176 280 16 11 125 69 243 129 196 99 220 109 270 109 42 0 64 6 92 25 20
14 42 25 48 25 6 0 26 8 45 18 29 15 62 17 239 16 174 -1 218 -4 291 -23 106
-26 118 -26 199 0 36 11 77 18 92 15 52 -10 251 -154 273 -197 8 -15 21 -33
28 -41 27 -26 47 -78 41 -101 -6 -25 22 -59 80 -99 13 -10 39 -44 57 -75 32
-55 33 -62 33 -158 -1 -69 -8 -123 -22 -175 -11 -41 -26 -111 -33 -155 -12
-80 -12 -81 -64 -125 -30 -26 -68 -71 -87 -105 -18 -33 -38 -60 -44 -60 -6 0
-42 -26 -81 -58 -65 -53 -92 -69 -79 -48 3 4 0 30 -7 57 -12 47 -11 77 8 303
4 48 3 71 -4 67 -6 -4 -7 4 0 26 23 80 38 176 33 206 -12 65 31 26 115 -105
30 -46 56 -83 58 -83 3 0 -12 30 -32 67 -36 65 -148 203 -165 203 -5 0 -4 -16
2 -37 9 -33 7 -61 -8 -149 -8 -46 -15 -64 -25 -64 -5 0 -8 4 -6 8 5 18 -129
267 -162 301 -32 33 -91 69 -91 55 0 -2 17 -19 37 -37 44 -39 93 -104 93 -125
0 -12 -5 -11 -22 5 -13 11 -50 31 -83 44 -33 13 -76 34 -95 46 -19 12 -61 32
-93 44 -54 21 -92 54 -64 57 27 2 45 9 107 39 83 40 180 75 300 106 64 17 84
26 62 26 -18 1 -65 -8 -105 -20 -39 -11 -90 -25 -112 -31 -44 -12 -267 -107
-275 -117 -3 -4 -41 -24 -85 -45 -131 -62 -477 -298 -617 -423 -79 -70 -148
-174 -104 -157 9 3 16 -4 20 -22 4 -14 12 -32 19 -40 30 -33 35 -44 56 -102
23 -68 31 -184 17 -246 -7 -31 -6 -37 4 -31 9 5 11 4 6 -4 -4 -6 -11 -9 -16
-6 -5 3 -8 -16 -8 -42 0 -37 2 -43 9 -28 7 15 8 10 5 -18 -3 -26 -1 -37 6 -35
15 5 29 58 22 81 -3 9 -1 17 4 17 6 0 8 17 5 42 -4 29 -3 39 5 34 7 -4 12 -1
12 8 0 8 -5 16 -12 18 -7 3 -9 11 -3 24 7 17 8 17 12 2 3 -10 9 -18 14 -18 5
0 9 -6 9 -13 0 -8 6 -27 14 -43 19 -39 31 -98 19 -91 -6 4 -8 -4 -5 -20 l5
-25 12 29 c13 31 9 96 -6 87 -5 -3 -9 4 -9 15 0 12 -11 44 -24 72 -23 47 -25
59 -20 171 2 66 7 124 10 129 3 5 0 9 -5 9 -6 0 -12 -12 -13 -27 0 -16 -2 -32
-3 -38 -2 -5 -4 -35 -5 -65 l-2 -55 -18 40 c-11 22 -17 48 -14 58 6 19 -5 62
-13 53 -6 -6 -33 19 -33 30 0 4 -7 15 -16 25 -26 28 -26 107 0 92 6 -3 8 -3 4
2 -4 4 -3 14 3 22 13 15 33 18 24 4 -3 -5 -1 -12 5 -16 6 -4 10 7 10 27 0 22
3 29 9 20 6 -10 10 -8 15 11 4 18 12 25 29 23 19 -1 22 -6 20 -36 -2 -26 1
-22 11 18 7 30 21 61 31 70 14 14 16 14 12 2 -3 -8 -13 -40 -22 -70 -10 -30
-25 -78 -34 -106 -14 -39 -15 -53 -5 -62 17 -15 22 -7 18 29 -2 17 0 39 6 48
5 10 11 31 14 47 3 16 22 62 42 101 42 83 101 139 211 202 175 100 441 126
597 57 104 -46 135 -76 223 -216 l28 -45 1 -200 c0 -110 6 -230 12 -267 9 -52
10 -79 1 -113 -13 -51 -5 -73 10 -32 6 15 16 25 23 23 7 -1 10 -1 6 1 -12 7
-10 53 2 53 5 0 7 7 4 14 -7 17 25 65 44 66 6 0 12 5 12 11 0 5 4 8 8 5 5 -3
15 4 22 15 8 10 17 19 21 19 11 0 79 68 79 79 0 6 4 11 9 11 5 0 12 9 16 20 3
11 33 47 65 81 48 51 59 70 65 108 4 25 12 52 17 59 7 8 7 12 0 12 -7 0 -7 10
0 33 5 17 10 41 10 51 -1 11 4 28 10 39 14 27 19 73 21 182 0 84 -2 94 -32
149 -18 32 -58 82 -87 110 -37 34 -54 59 -55 76 0 14 -9 39 -20 55 -10 17 -22
37 -26 45 -21 44 -120 137 -199 186 -18 11 -41 27 -51 36 -24 20 -145 21 -191
2 -37 -15 -84 -19 -96 -7 -7 8 -18 10 -96 19 -42 5 -62 13 -87 36 -17 17 -36
27 -42 23 -6 -3 -10 -2 -9 3 5 16 -71 71 -148 108 -82 39 -113 45 -41 8z m288
-768 c23 -15 21 -16 -51 -16 -41 0 -93 -5 -115 -10 -22 -5 -41 -7 -43 -6 -2 2
21 16 50 30 60 30 119 30 159 2z"></path>
<path d="M1850 3711 c-19 -10 -54 -26 -76 -36 -23 -9 -56 -30 -72 -45 -37 -34
-139 -90 -163 -90 -21 0 -66 -36 -57 -46 4 -4 15 -1 24 7 9 7 22 14 28 15 7 1
30 13 52 26 21 14 49 28 61 32 12 4 50 27 83 52 33 24 67 44 75 44 9 0 32 11
53 24 21 13 47 26 58 29 15 4 14 5 -6 6 -14 0 -41 -8 -60 -18z"></path>
<path d="M1097 3670 c-14 -11 -29 -20 -34 -20 -4 0 -21 -16 -36 -35 -16 -20
-33 -33 -38 -29 -10 6 -208 -192 -209 -208 0 -16 19 -7 24 10 3 10 27 35 52
57 110 95 124 108 119 115 -3 5 0 12 6 16 8 4 9 3 5 -4 -18 -30 1 -16 129 92
35 30 19 35 -18 6z"></path>
<path d="M1378 3530 c-28 -8 -79 -50 -62 -50 6 0 19 8 30 18 10 10 35 23 54
29 19 6 28 11 20 11 -8 0 -27 -3 -42 -8z"></path>
<path d="M2240 3469 l-25 -7 25 -1 c14 -1 50 -3 80 -6 36 -4 48 -2 35 3 -32
14 -88 20 -115 11z"></path>
<path d="M1085 3350 c-31 -32 -51 -39 -41 -15 3 8 2 15 -3 15 -14 0 -57 -39
-44 -40 6 0 14 5 16 10 3 6 4 5 3 -2 -2 -7 -11 -13 -22 -13 -23 0 -96 -64 -88
-77 3 -5 1 -7 -4 -6 -5 2 -21 -9 -35 -24 -14 -16 -21 -28 -14 -28 7 0 4 -7 -6
-14 -10 -8 -14 -17 -9 -20 5 -3 37 24 70 59 34 36 68 65 76 65 8 0 20 9 26 20
6 11 16 20 24 20 7 0 28 14 46 30 18 17 37 30 42 30 4 0 8 5 8 10 0 18 -16 11
-45 -20z"></path>
<path d="M1846 3311 c14 -13 74 -31 74 -22 0 4 -15 12 -33 19 -39 14 -55 15
-41 3z"></path>
<path d="M685 3272 c-30 -26 -119 -141 -113 -147 3 -3 18 11 34 32 15 21 31
40 34 43 9 8 72 90 68 90 -1 -1 -12 -8 -23 -18z"></path>
<path d="M2146 3268 c3 -4 37 -17 77 -28 198 -57 212 -62 240 -93 25 -29 27
-30 27 -9 0 28 -43 56 -130 82 -99 30 -219 57 -214 48z"></path>
<path d="M813 3112 c-19 -12 -73 -140 -80 -189 -3 -27 -13 -53 -22 -60 -9 -7
-11 -13 -4 -13 12 0 12 -17 0 -37 -5 -7 -4 -13 1 -13 6 0 8 -9 5 -21 -4 -13
-11 -18 -20 -14 -12 4 -13 1 -7 -12 13 -30 6 -117 -11 -129 -16 -12 -20 -116
-6 -164 5 -15 7 4 7 50 -1 60 3 80 19 102 21 28 68 43 120 39 29 -2 29 -2 10
13 -26 20 -75 21 -75 1 0 -9 -9 -15 -21 -15 -18 0 -20 4 -15 33 3 17 13 86 21
152 16 118 40 193 78 248 20 29 20 41 0 29z"></path>
<path d="M2490 3103 c0 -5 7 -17 15 -27 8 -10 12 -22 10 -26 -3 -5 2 -21 11
-36 l15 -29 -7 35 c-9 49 -45 116 -44 83z"></path>
<path d="M616 2994 c-9 -48 -16 -130 -10 -116 3 6 9 10 13 8 4 -3 9 18 10 46
1 29 4 55 6 58 2 3 0 12 -5 19 -5 10 -9 5 -14 -15z"></path>
<path d="M1010 2958 c-33 -34 -117 -154 -139 -198 l-12 -25 21 25 c12 14 37
49 56 78 19 28 47 67 62 85 63 74 69 92 12 35z"></path>
<path d="M477 2963 c-3 -10 -10 -40 -17 -68 -6 -27 -15 -66 -20 -85 -5 -19 -9
-44 -10 -55 0 -11 -2 -41 -4 -67 -4 -44 6 -113 21 -148 3 -8 5 -21 4 -29 -1
-7 2 -10 7 -7 5 3 21 -9 35 -27 42 -55 80 -88 94 -83 8 3 23 -3 35 -13 11 -11
26 -17 33 -14 8 3 25 -13 42 -39 15 -24 33 -47 40 -53 20 -17 80 -139 75 -154
-3 -8 0 -11 7 -7 6 4 11 1 11 -8 0 -9 7 -16 15 -16 9 0 18 -6 20 -12 3 -8 23
-13 50 -13 50 0 60 11 18 21 -80 17 -89 26 -128 119 -11 28 -39 74 -60 103
-32 43 -54 61 -113 89 -91 43 -136 82 -169 146 -22 45 -24 59 -20 126 3 42 10
101 16 131 24 131 30 174 27 178 -2 2 -6 -5 -9 -15z"></path>
<path d="M910 2919 c0 -6 -11 -23 -24 -37 -66 -73 -76 -86 -76 -98 0 -21 26
-6 41 24 7 15 30 48 52 75 27 33 33 47 23 47 -9 0 -16 -5 -16 -11z"></path>
<path d="M1780 2905 c-77 -17 -91 -23 -50 -24 41 -1 107 16 115 29 7 11 9 11
-65 -5z"></path>
<path d="M1490 2849 c41 -16 91 -32 110 -34 19 -3 56 -7 82 -11 35 -4 53 -2
70 10 22 15 20 16 -37 10 -44 -4 -76 -1 -120 12 -33 10 -64 17 -68 16 -4 -1
-21 5 -37 13 -16 8 -39 15 -52 14 -13 0 8 -13 52 -30z"></path>
<path d="M2421 2790 c-2 -25 -4 -60 -6 -79 -2 -26 0 -30 7 -18 5 9 7 45 5 79
-3 55 -4 57 -6 18z"></path>
<path d="M1355 2810 c-3 -5 0 -12 7 -14 7 -2 41 -14 76 -26 34 -13 65 -20 68
-17 3 3 -19 13 -48 23 -29 9 -63 23 -75 31 -14 10 -23 11 -28 3z"></path>
<path d="M1944 2761 c-28 -9 -55 -16 -61 -14 -5 2 -15 -7 -21 -21 -9 -20 -8
-25 4 -30 8 -3 12 -2 9 4 -7 11 28 34 77 50 21 6 40 16 43 21 4 5 5 9 3 8 -2
0 -26 -8 -54 -18z"></path>
<path d="M1273 2759 c-18 -5 -33 -12 -33 -15 0 -3 8 -3 19 1 10 3 29 1 42 -5
24 -10 24 -10 -3 -5 -15 3 -39 0 -55 -7 -34 -14 -93 -68 -93 -84 0 -7 -14 -16
-32 -19 -27 -6 -29 -9 -14 -17 13 -7 23 -5 37 7 15 15 21 15 34 5 8 -7 12 -17
8 -24 -3 -6 10 6 29 27 20 20 43 37 52 37 9 0 16 5 16 11 0 6 8 8 19 4 10 -3
30 -1 43 4 19 7 31 6 46 -5 12 -8 34 -14 49 -12 33 2 76 -20 116 -57 16 -15
31 -25 34 -22 3 3 -8 18 -23 32 l-29 25 30 -12 c17 -7 37 -20 46 -30 12 -13
19 -14 27 -6 9 9 12 9 12 -1 0 -28 23 -3 41 44 21 56 24 81 9 90 -5 3 -9 -9
-8 -31 2 -57 -43 -83 -81 -45 -19 19 -60 32 -100 33 -16 0 -20 3 -11 8 10 6
-24 24 -70 35 -3 1 -18 7 -33 13 -36 15 -38 15 -31 -2 3 -9 12 -12 21 -9 11 4
14 2 9 -5 -4 -8 -2 -10 7 -6 8 3 17 -2 20 -10 6 -15 3 -15 -30 -1 -51 22 -77
46 -61 57 18 11 -17 9 -59 -3z m57 -49 c-8 -5 -27 -10 -42 -10 -15 0 -39 -5
-54 -10 -38 -15 -43 -4 -4 12 39 16 122 23 100 8z"></path>
<path d="M2350 2744 c-15 -39 -8 -48 12 -14 10 17 13 32 7 35 -5 4 -14 -6 -19
-21z"></path>
<path d="M608 2739 c-9 -136 12 -269 50 -324 14 -20 14 -20 7 0 -22 60 -39
161 -42 244 -2 88 -11 134 -15 80z"></path>
<path d="M2060 2710 c0 -11 -70 -43 -78 -36 -2 3 11 12 29 21 24 10 26 13 9 9
-14 -3 -36 -8 -50 -11 -14 -3 -36 -14 -49 -24 -13 -11 -40 -19 -59 -19 -20 0
-44 -7 -54 -17 -17 -15 -18 -15 -18 0 0 10 -4 17 -10 17 -5 0 -10 -11 -10 -25
0 -15 6 -25 14 -25 9 0 16 -17 20 -49 5 -39 15 -57 46 -90 22 -22 56 -47 76
-56 56 -23 65 -17 14 9 -48 26 -105 78 -65 61 11 -5 48 -11 82 -13 52 -3 69 0
98 18 35 21 35 23 20 46 -8 13 -12 24 -7 24 10 0 32 -44 32 -63 0 -14 -33 -36
-70 -48 -17 -5 -19 -8 -7 -8 30 -2 75 27 90 58 14 28 13 31 -13 56 -33 31 -99
56 -120 45 -8 -4 -33 -11 -55 -15 -21 -3 -52 -13 -67 -21 -27 -14 -28 -14 -28
10 0 18 9 30 30 41 17 9 30 11 30 5 0 -5 8 -10 17 -10 9 0 13 3 9 8 -4 4 27
12 71 18 82 11 101 7 141 -29 l22 -20 0 20 c0 11 -12 32 -27 47 -23 23 -33 26
-65 22 -21 -3 -38 -3 -38 -1 0 3 16 13 36 23 28 15 33 20 20 25 -9 4 -16 2
-16 -3z m-25 -172 c24 -29 25 -33 10 -44 -16 -12 -146 -11 -186 1 -24 8 -20
31 5 27 10 -2 16 4 17 15 0 14 2 13 9 -4 17 -41 118 -24 105 18 -10 29 10 23
40 -13z"></path>
<path d="M1276 2594 c-71 -54 -85 -74 -49 -74 9 0 13 6 9 15 -11 31 27 14 81
-35 54 -49 102 -66 118 -40 4 6 -6 10 -23 10 -16 0 -35 7 -42 15 -7 8 -20 15
-30 15 -9 0 -25 9 -35 20 -18 19 -9 29 11 11 5 -4 36 -13 69 -20 51 -9 69 -9
108 5 26 9 49 20 53 25 7 12 0 11 -57 -7 -55 -18 -103 -15 -164 10 l-40 17 25
14 c33 19 37 18 43 -5 11 -42 107 -34 107 10 0 11 5 20 10 20 12 0 56 -26 85
-51 11 -9 31 -19 45 -23 17 -4 32 -20 48 -53 l22 -48 -5 40 c-3 25 -13 47 -27
59 -13 10 -22 23 -21 27 2 5 -5 9 -14 9 -9 0 -34 12 -55 27 -47 32 -99 42
-155 29 -49 -11 -67 -1 -39 20 11 8 15 14 9 14 -6 0 -45 -25 -87 -56z"></path>
<path d="M2300 2642 c0 -4 -21 -32 -47 -61 -46 -53 -61 -81 -42 -81 5 0 9 7 9
15 0 8 9 19 20 25 11 6 20 17 20 25 0 8 6 15 13 15 12 0 21 12 45 63 2 4 -1 7
-7 7 -6 0 -11 -3 -11 -8z"></path>
<path d="M738 2613 c-40 -10 -48 -126 -13 -208 23 -57 29 -36 12 47 -14 71
-13 138 3 138 5 0 6 -15 4 -32 l-4 -33 18 33 c19 34 32 33 32 -3 0 -12 10 -32
22 -45 l21 -23 -26 -19 c-19 -14 -27 -29 -27 -50 0 -34 34 -88 56 -88 8 0 26
-12 39 -27 31 -35 35 -8 5 30 -28 35 -50 111 -43 150 4 25 -3 43 -29 81 -34
52 -41 57 -70 49z"></path>
<path d="M1499 2487 c-29 -27 -37 -66 -10 -45 35 26 61 52 61 60 0 16 -27 8
-51 -15z"></path>
<path d="M1586 2482 c-9 -37 -2 -52 15 -35 8 8 8 20 2 40 l-10 28 -7 -33z"></path>
<path d="M1255 2479 c4 -13 17 -32 29 -41 12 -10 26 -22 32 -27 6 -5 16 -6 21
-3 6 4 -12 27 -40 51 -43 39 -49 42 -42 20z"></path>
<path d="M1825 2420 c4 -30 16 -94 27 -143 16 -69 18 -94 9 -119 -11 -31 -11
-31 9 -13 11 10 20 24 20 31 0 7 4 15 9 18 8 5 61 -83 61 -103 0 -13 -52 -5
-92 14 -22 10 -30 10 -44 1 -14 -11 -14 -15 -4 -21 8 -5 15 -4 18 3 2 7 10 8
20 3 52 -27 71 -33 81 -27 6 4 11 2 11 -3 0 -6 7 -11 15 -11 8 0 15 -4 15 -9
0 -5 12 -23 26 -40 14 -18 41 -62 60 -99 37 -73 43 -69 18 9 -14 41 -14 54 -4
80 8 19 18 28 27 25 8 -3 11 -1 8 4 -8 13 14 80 26 80 5 0 9 9 9 21 0 12 5 19
13 16 13 -4 12 -174 -3 -192 -4 -5 -9 -41 -10 -80 -1 -38 -3 -78 -3 -87 -1
-10 -7 -18 -15 -18 -8 0 -10 -5 -5 -12 4 -7 8 -22 9 -33 1 -11 4 -32 9 -47 5
-18 3 -28 -4 -28 -6 0 -11 5 -11 12 0 6 -2 9 -6 6 -3 -3 4 -20 14 -38 16 -26
18 -38 10 -66 -15 -55 -58 -141 -59 -119 0 11 -3 15 -5 9 -7 -16 14 -66 25
-60 4 3 8 -2 8 -12 0 -34 3 -43 12 -37 12 7 43 -54 34 -68 -3 -6 -1 -7 5 -3 8
5 12 0 12 -13 0 -11 5 -23 10 -26 6 -3 10 -15 10 -26 0 -10 4 -19 9 -19 5 0
12 -18 16 -40 4 -22 10 -40 15 -40 7 0 15 -29 25 -95 7 -44 9 -52 34 -134 22
-70 42 -216 32 -226 -2 -3 -10 3 -17 13 -11 14 -12 11 -3 -20 8 -31 6 -45 -16
-93 -28 -61 -61 -83 -96 -65 -10 6 -19 15 -19 21 0 6 -7 3 -16 -6 -9 -9 -20
-13 -25 -8 -10 10 -113 310 -144 420 -13 46 -26 86 -29 91 -3 5 10 27 28 49
62 72 127 202 126 252 -1 9 -10 -11 -22 -44 -11 -33 -26 -67 -32 -75 -6 -8
-20 -31 -30 -50 -11 -19 -35 -54 -53 -77 l-34 -41 15 -59 c9 -32 45 -146 81
-255 36 -108 65 -199 65 -202 0 -11 -26 -6 -57 9 -26 13 -32 26 -63 137 -18
68 -51 181 -72 252 l-39 129 21 14 c40 28 98 113 125 183 15 38 25 75 23 81
-2 6 -13 -16 -23 -49 -11 -33 -24 -60 -29 -59 -6 1 -11 -2 -11 -8 -3 -24 -31
-68 -71 -110 -42 -43 -43 -47 -41 -102 1 -32 8 -64 15 -71 6 -7 12 -24 12 -38
0 -13 4 -24 8 -24 4 0 8 -8 9 -17 2 -25 26 -107 33 -113 8 -7 39 -109 41 -135
5 -55 3 -56 -51 -35 -27 11 -50 16 -50 12 0 -4 -4 -1 -9 6 -4 7 -16 15 -26 16
-11 2 -24 11 -29 21 -6 11 -17 26 -24 34 -8 7 -11 22 -9 33 3 10 1 16 -4 12
-5 -3 -10 5 -10 18 -2 37 -7 55 -31 105 -6 12 -8 29 -5 37 4 9 1 15 -4 13 -6
-1 -17 16 -25 38 -23 66 -24 68 -29 64 -2 -3 20 -78 50 -168 55 -164 62 -191
48 -191 -24 1 -40 32 -83 161 l-48 144 -63 13 c-35 7 -88 17 -117 23 -38 8
-66 21 -93 46 -22 20 -37 38 -34 41 2 3 24 -2 47 -11 90 -34 272 -64 283 -47
4 6 -5 10 -22 10 -15 0 -44 4 -63 9 -19 5 -51 12 -70 14 -54 7 -130 26 -154
39 -30 15 -96 80 -96 94 0 7 -7 14 -15 18 -8 3 -14 9 -13 13 4 12 -58 93 -66
86 -3 -3 -6 1 -6 10 0 10 -4 17 -8 17 -5 0 -14 12 -21 26 -6 15 -14 24 -17 21
-8 -7 -54 47 -54 63 0 6 5 8 12 4 7 -4 8 -3 4 5 -6 9 -11 9 -21 1 -9 -8 -14
-6 -19 6 -11 29 4 34 32 9 15 -13 38 -34 52 -46 43 -37 172 -119 235 -148 121
-56 295 -105 295 -84 0 5 19 7 42 7 24 -1 48 5 56 12 7 8 19 14 26 14 7 0 21
9 31 20 10 11 22 17 26 14 11 -7 70 86 62 99 -3 5 1 13 8 18 8 5 9 9 4 9 -6 0
-27 -22 -48 -49 -37 -50 -99 -94 -149 -106 -44 -11 -38 29 10 59 102 65 102
117 0 115 -126 -2 -186 12 -342 80 -50 22 -153 109 -148 124 1 5 -2 6 -8 2 -5
-3 -10 -2 -10 2 0 5 -16 36 -36 69 -19 32 -35 60 -35 62 3 8 -61 121 -78 140
-12 12 -17 22 -11 22 7 0 4 7 -4 16 -9 8 -16 25 -16 37 -1 12 -7 33 -15 47
-14 24 -14 22 -15 -33 0 -37 4 -56 10 -52 10 6 14 -1 24 -48 4 -15 15 -35 26
-45 11 -9 20 -22 20 -29 0 -7 14 -34 30 -60 17 -26 30 -52 30 -59 0 -7 4 -14
8 -16 5 -1 20 -25 34 -53 13 -27 34 -55 45 -61 12 -5 36 -24 54 -42 18 -18 38
-32 45 -32 6 0 17 -6 24 -14 6 -8 17 -13 24 -10 7 3 19 -2 26 -11 7 -8 18 -15
24 -15 6 0 34 -12 61 -27 33 -17 45 -21 36 -10 -16 20 -8 22 22 5 12 -6 29
-13 37 -14 49 -9 55 -8 53 4 -4 18 8 15 34 -10 16 -15 26 -19 31 -12 9 14 74
13 78 -1 5 -16 -106 -75 -141 -75 -17 0 -40 6 -50 14 -11 8 -24 12 -30 10 -6
-3 -37 9 -70 24 -33 16 -71 33 -84 37 -41 13 -170 93 -230 143 -60 50 -150
159 -156 189 -2 10 -4 28 -4 41 -1 14 -5 20 -12 17 -17 -11 -37 26 -45 83 -4
34 -10 50 -16 44 -16 -16 9 -118 44 -184 57 -107 208 -253 330 -319 77 -41
181 -86 228 -99 19 -5 54 -14 78 -20 42 -11 57 -35 28 -46 -26 -10 -170 37
-291 96 -197 96 -339 224 -415 375 -30 59 -35 79 -35 139 0 56 5 79 23 109 27
46 28 60 3 30 -10 -12 -21 -19 -25 -16 -3 4 -6 -8 -6 -25 0 -18 -4 -32 -10
-32 -5 0 -10 -5 -10 -10 0 -6 -18 -36 -39 -68 -22 -31 -37 -59 -34 -62 3 -3 8
1 10 8 3 6 9 10 14 7 5 -4 6 0 4 7 -3 8 6 25 21 38 24 23 26 24 23 5 -1 -11 2
-38 6 -60 5 -22 8 -46 7 -52 -2 -7 2 -13 7 -13 6 0 7 -7 4 -17 -4 -10 -2 -14
4 -10 6 4 18 -11 27 -32 10 -21 28 -50 42 -66 13 -15 24 -32 24 -36 0 -4 7
-15 16 -23 8 -9 12 -20 9 -26 -6 -10 -32 6 -91 57 -15 12 -35 25 -45 28 -11 4
-19 11 -19 17 0 6 -3 8 -6 5 -9 -8 -57 30 -66 51 -5 14 -7 12 -7 -6 -1 -19 -3
-21 -20 -10 -11 7 -18 15 -15 19 2 4 -9 10 -26 14 -16 4 -30 10 -30 15 0 4
-11 11 -25 14 -14 4 -23 10 -21 15 5 7 -28 22 -43 20 -2 0 -7 3 -10 8 -14 19
-70 52 -105 62 -42 11 -63 3 -121 -49 -37 -33 -88 -54 -115 -47 -10 3 -18 2
-17 -3 1 -4 -14 -23 -34 -41 -42 -39 -113 -129 -101 -129 4 0 2 -4 -3 -8 -6
-4 -30 -31 -54 -60 -23 -28 -46 -50 -50 -47 -4 2 -8 -2 -8 -9 0 -30 70 30 130
112 88 120 136 162 185 162 33 0 46 8 89 50 28 28 60 50 72 50 11 0 62 -28
113 -63 51 -34 142 -89 201 -121 59 -31 138 -83 175 -114 82 -69 192 -189 243
-267 89 -135 402 -476 484 -527 73 -45 199 -100 286 -123 115 -32 319 -47 319
-24 0 8 15 54 34 102 l33 89 -14 76 c-21 112 -78 328 -106 403 -33 87 -114
256 -127 264 -6 4 -4 15 6 30 9 14 20 23 24 20 12 -8 22 60 25 175 5 152 15
285 23 288 8 3 -3 187 -15 252 l-9 45 -27 -60 c-15 -33 -34 -71 -42 -85 -7
-14 -20 -39 -28 -56 -19 -40 -35 -50 -44 -27 -3 10 -17 33 -30 51 -13 17 -32
56 -42 85 -24 68 -53 127 -62 127 -4 0 -9 -10 -11 -22 -3 -19 -6 -17 -17 15
-15 43 -6 62 15 33 8 -11 14 -16 14 -11 0 5 -10 19 -22 32 -17 19 -22 35 -21
76 1 39 -4 60 -19 78 l-19 24 6 -55z m-253 -1522 l67 -11 40 -121 c48 -143 50
-163 13 -116 -15 19 -46 53 -68 75 -23 22 -44 50 -48 63 -4 12 -11 20 -16 17
-16 -10 -40 8 -81 62 l-42 56 34 -7 c19 -3 64 -12 101 -18z"></path>
<path d="M1629 2322 c-25 -3 -66 -39 -82 -72 -4 -8 -27 -52 -50 -97 -27 -51
-37 -78 -27 -73 9 5 26 31 39 59 13 27 29 52 36 55 7 2 29 -13 48 -33 27 -29
46 -40 79 -44 23 -3 44 -4 46 -2 2 1 -25 20 -60 41 -91 54 -88 51 -76 87 22
67 79 79 103 21 8 -20 15 -45 15 -55 0 -11 5 -19 10 -19 6 0 10 16 10 36 0 47
-52 102 -91 96z"></path>
<path d="M819 2274 c23 -30 51 -41 51 -20 0 11 -19 24 -64 45 -6 2 0 -9 13
-25z"></path>
<path d="M1127 2130 c-3 -8 -10 -31 -15 -51 -7 -28 -6 -36 4 -36 7 0 11 4 8 8
-3 5 0 18 6 29 6 12 10 31 7 43 -3 16 -5 18 -10 7z"></path>
<path d="M1231 2100 c0 -8 7 -31 14 -50 l14 -35 -6 40 c-5 39 -24 75 -22 45z"></path>
<path d="M1672 2099 c3 -8 10 -15 16 -15 7 -1 17 -2 22 -3 16 -2 12 -31 -5
-32 -26 -2 -79 -8 -105 -12 -14 -2 -33 -5 -42 -5 -11 -1 -18 -10 -18 -21 0
-11 -5 -23 -12 -27 -7 -4 -8 -3 -4 4 14 23 -5 31 -24 12 -22 -22 -27 -38 -7
-21 8 6 17 8 20 4 10 -10 -13 -32 -27 -27 -15 6 -48 -56 -53 -96 -3 -23 -2
-23 11 5 26 55 103 128 139 131 101 9 153 18 162 31 8 11 16 10 45 -5 19 -11
51 -22 70 -26 19 -4 43 -13 52 -20 25 -18 101 -170 88 -174 -10 -4 -15 -32 -4
-32 7 0 30 23 32 32 2 4 5 15 8 23 4 8 0 22 -7 31 -7 9 -12 31 -11 50 3 33
-11 47 -21 22 -3 -7 -6 -2 -6 12 -2 32 -14 52 -31 48 -7 -2 -23 11 -34 28 -12
18 -30 38 -41 45 -18 11 -19 11 -6 -5 8 -9 11 -20 7 -24 -4 -4 -16 4 -26 18
-16 20 -20 22 -20 8 0 -21 -13 -23 -39 -6 -14 8 -17 17 -11 28 7 14 2 16 -33
16 -23 0 -53 3 -66 8 -18 6 -22 5 -19 -5z"></path>
<path d="M1153 2069 c-1 -17 2 -27 7 -24 16 10 24 -26 9 -37 -11 -8 -10 -9 4
-4 11 4 20 -1 24 -12 4 -9 12 -21 19 -27 6 -5 15 -23 18 -38 4 -15 11 -25 16
-22 5 3 13 -3 19 -12 6 -11 11 -13 11 -5 0 7 -7 20 -15 28 -8 9 -15 24 -15 35
0 11 -7 19 -16 19 -8 0 -13 4 -9 9 3 5 -2 16 -10 24 -8 9 -15 20 -15 25 0 6
-7 12 -15 16 -8 3 -15 14 -15 25 0 32 -15 32 -17 0z"></path>
<path d="M1579 2096 c-3 -3 -20 -8 -39 -11 -63 -11 -132 -62 -181 -133 -25
-37 -51 -66 -57 -65 -7 2 -12 -8 -12 -25 1 -26 3 -25 50 28 27 30 50 62 50 70
0 9 23 33 50 55 46 37 82 52 134 58 11 1 21 8 24 15 3 11 -10 17 -19 8z"></path>
<path d="M2210 2062 c0 -6 27 -34 59 -62 33 -29 78 -82 101 -119 71 -116 177
-255 222 -289 103 -80 187 -179 213 -252 12 -34 13 -55 4 -111 -7 -45 -7 -74
-1 -86 9 -15 10 -14 11 7 0 14 3 41 6 60 3 19 6 48 5 63 0 28 0 28 47 23 44
-5 45 -5 18 5 -44 17 -49 22 -86 96 -34 68 -96 136 -207 232 -49 42 -61 58
-57 75 2 11 2 15 -1 8 -5 -10 -9 -9 -19 5 -7 10 -13 21 -14 25 -1 4 -13 20
-26 35 -14 16 -34 38 -45 51 -11 13 -17 28 -14 34 4 6 3 8 -3 5 -7 -4 -19 12
-29 37 -10 24 -22 43 -25 40 -4 -2 -10 8 -13 22 -4 15 -9 24 -12 21 -9 -9 -44
26 -37 36 3 6 1 7 -5 3 -7 -4 -12 -3 -12 1 0 5 -15 15 -32 23 -18 7 -36 15
-40 18 -5 2 -8 -1 -8 -6z"></path>
<path d="M1466 2011 c-15 -16 -27 -33 -27 -38 1 -4 -6 -16 -14 -25 -12 -15
-12 -18 -1 -18 7 0 17 8 20 18 8 21 28 55 45 76 22 27 7 18 -23 -13z"></path>
<path d="M1704 1970 c13 -9 15 -14 6 -20 -16 -10 -52 -1 -44 11 3 5 -11 9 -30
9 -19 0 -38 -5 -42 -11 -3 -6 -19 -9 -35 -7 -19 3 -26 1 -20 -5 5 -5 47 -12
93 -14 45 -2 85 -8 88 -12 6 -8 185 10 195 20 3 4 -8 12 -26 18 -27 9 -34 8
-45 -7 -7 -9 -16 -13 -20 -9 -5 4 -2 12 5 17 8 5 -10 7 -45 7 -32 -1 -68 2
-79 6 -19 8 -19 8 -1 -3z"></path>
<path d="M2234 1919 c-4 -6 13 -30 37 -53 57 -55 115 -122 140 -163 12 -18 25
-33 30 -33 14 0 11 16 -6 30 -8 7 -15 18 -15 25 0 7 -11 24 -24 38 -13 14 -30
39 -37 55 -7 16 -30 40 -51 53 -21 13 -38 32 -38 41 0 20 -25 24 -36 7z"></path>
<path d="M1499 1896 c7 -8 23 -17 36 -20 16 -4 27 -16 31 -33 6 -23 8 -24 19
-10 14 19 30 23 19 5 -4 -6 -3 -8 4 -4 6 3 14 1 18 -5 4 -7 21 -9 46 -5 l40 7
-7 -43 c-9 -50 -13 -60 -25 -53 -5 3 -8 -4 -7 -14 1 -19 3 -19 19 -4 16 14 18
14 28 -11 5 -15 10 -33 11 -39 0 -7 4 -3 8 8 9 21 3 55 -9 55 -4 0 -5 12 -2
26 3 19 7 22 13 12 6 -9 9 -7 9 10 0 33 1 36 12 50 13 14 45 16 50 2 2 -6 8
-2 15 9 11 18 9 19 -66 14 -84 -6 -159 7 -225 38 -48 23 -52 23 -37 5z"></path>
<path d="M2044 1778 c6 -35 17 -58 26 -58 5 0 11 -9 15 -19 3 -11 12 -22 20
-25 11 -4 9 3 -6 23 -11 15 -22 34 -24 42 -8 38 -18 59 -26 59 -5 0 -7 -10 -5
-22z"></path>
<path d="M1790 1784 c0 -6 3 -14 7 -18 4 -4 8 -13 9 -19 2 -28 17 -78 25 -83
5 -3 9 11 9 30 0 29 4 36 19 36 11 0 21 -3 24 -7 2 -5 2 -2 1 5 -6 24 16 12
31 -18 18 -35 25 -38 25 -9 0 11 -4 18 -9 15 -5 -3 -12 1 -15 10 -11 27 -7 37
9 24 12 -10 15 -10 15 4 0 13 -8 15 -45 11 -25 -2 -51 -7 -57 -11 -6 -4 -19 4
-29 17 -10 13 -19 19 -19 13z"></path>
<path d="M1589 1753 c-11 -30 -7 -108 6 -121 4 -4 4 15 1 41 -6 36 -3 54 8 72
10 15 12 26 6 30 -6 3 -15 -6 -21 -22z"></path>
<path d="M1957 1767 c-5 -14 18 -77 28 -77 3 0 1 8 -4 18 -5 10 -8 30 -7 45 3
28 -8 37 -17 14z"></path>
<path d="M1552 1705 c0 -16 4 -43 8 -60 11 -42 11 -1 1 50 -7 34 -9 35 -9 10z"></path>
<path d="M1636 1702 c-7 -12 12 -108 20 -100 1 2 -1 28 -4 58 -5 36 -10 50
-16 42z"></path>
<path d="M1685 1691 c-7 -12 15 -61 28 -61 5 0 7 10 3 23 -3 12 -6 28 -6 35 0
14 -16 16 -25 3z"></path>
<path d="M1870 1696 c0 -3 5 -17 12 -31 12 -27 38 -34 38 -10 0 8 -4 15 -9 15
-5 0 -17 7 -25 16 -9 8 -16 13 -16 10z"></path>
<path d="M2263 1668 c2 -37 12 -48 45 -48 12 0 22 -4 22 -9 0 -6 14 -25 30
-43 17 -18 30 -37 30 -43 0 -13 58 -75 71 -75 13 0 11 7 -6 27 -8 10 -45 59
-83 108 -37 50 -75 90 -83 90 -8 1 -13 6 -11 13 1 7 -2 12 -8 12 -5 0 -8 -15
-7 -32z"></path>
<path d="M1994 1655 c-4 -8 -2 -21 4 -28 6 -6 12 -21 15 -32 2 -11 3 -6 0 10
-2 17 -5 38 -6 48 -2 21 -6 22 -13 2z"></path>
<path d="M1798 1639 c-3 -9 -2 -22 3 -30 5 -8 9 -47 9 -86 0 -40 4 -73 8 -73
10 0 5 114 -6 169 -5 24 -10 31 -14 20z"></path>
<path d="M1944 1617 c3 -11 9 -30 12 -43 3 -13 10 -24 15 -24 10 0 -9 61 -24
75 -7 7 -8 4 -3 -8z"></path>
<path d="M442 1585 c2 -3 38 -16 79 -30 40 -14 69 -21 64 -17 -10 9 -126 52
-140 52 -5 0 -6 -2 -3 -5z"></path>
<path d="M2210 1512 c0 -4 4 -12 10 -18 5 -5 16 -34 24 -64 8 -30 15 -45 15
-32 1 19 31 34 31 15 0 -5 18 -28 41 -53 23 -25 36 -35 30 -22 -18 34 -72 114
-95 140 -24 27 -56 47 -56 34z"></path>
<path d="M2480 1428 c0 -18 27 -44 37 -34 4 4 -3 16 -15 29 -18 17 -22 18 -22
5z"></path>
<path d="M321 1417 c-7 -7 -7 -14 0 -23 9 -11 14 -11 25 1 17 17 18 22 0 28
-7 3 -19 0 -25 -6z"></path>
<path d="M1850 1357 c0 -14 -4 -16 -19 -8 -17 10 -31 6 -31 -9 0 -4 11 -12 25
-18 21 -10 27 -9 31 3 4 8 14 15 23 16 13 0 13 2 1 6 -8 3 -18 11 -22 17 -5 7
-8 4 -8 -7z"></path>
<path d="M2170 1356 c0 -3 17 -24 39 -46 21 -22 37 -40 35 -40 -2 0 4 -8 14
-18 9 -11 20 -17 24 -15 4 2 5 -4 1 -13 -5 -13 -3 -16 10 -11 9 3 17 5 17 4 0
-1 7 -24 15 -50 8 -26 11 -46 7 -43 -4 2 -8 -11 -9 -30 -1 -26 3 -35 19 -40
15 -4 17 -8 8 -14 -9 -6 -7 -13 8 -28 16 -16 21 -35 23 -86 4 -138 4 -182 -3
-211 -4 -18 4 -8 19 25 32 67 32 99 3 226 -13 55 -31 135 -41 179 -15 63 -24
85 -46 103 -83 67 -143 113 -143 108z"></path>
<path d="M200 1335 c-25 -7 -56 -17 -70 -23 l-25 -11 26 0 c15 -1 43 6 63 14
20 8 38 15 41 15 3 0 6 0 8 0 49 8 114 7 126 -3 12 -9 13 -9 7 1 -9 15 4 15
38 2 14 -5 26 -16 26 -23 0 -17 69 -79 81 -71 5 3 9 1 9 -5 0 -5 -4 -11 -10
-13 -6 -2 -6 -8 0 -18 9 -13 11 -13 20 0 9 12 10 12 8 -5 -2 -14 2 -20 14 -19
15 1 16 -2 6 -20 -6 -11 -7 -18 -3 -14 11 11 36 -12 28 -26 -3 -6 -3 -8 2 -4
7 7 28 -7 85 -55 8 -6 18 -11 22 -9 5 1 8 -4 8 -11 0 -8 9 -22 20 -32 11 -10
17 -21 15 -26 -3 -4 0 -11 6 -15 8 -5 9 -3 4 6 -5 8 -4 11 3 6 6 -4 8 -14 5
-23 -5 -13 -2 -15 11 -10 9 4 15 3 12 -2 -3 -5 1 -14 9 -21 8 -7 15 -23 15
-37 0 -14 4 -22 11 -18 13 8 2 60 -19 95 -18 28 -165 187 -279 302 -49 48 -88
78 -106 82 -49 10 -169 5 -217 -9z"></path>
<path d="M640 1326 c0 -2 35 -30 78 -62 42 -31 80 -62 84 -68 4 -6 10 -8 13
-4 3 3 -22 28 -57 55 -65 51 -118 86 -118 79z"></path>
<path d="M2452 1138 c11 -29 26 -68 33 -87 7 -18 15 -29 18 -24 6 10 -6 47
-39 120 -27 61 -36 53 -12 -9z"></path>
<path d="M840 1173 c8 -3 8 -9 0 -18 -13 -15 13 -41 31 -30 8 6 7 10 -2 16 -8
4 -14 14 -14 20 0 7 -6 13 -13 15 -7 1 -8 0 -2 -3z"></path>
<path d="M890 1053 c0 -3 7 -20 16 -39 9 -19 14 -38 10 -41 -3 -4 0 -13 8 -22
13 -16 58 -139 71 -195 5 -23 9 -26 15 -16 5 8 5 17 1 20 -4 3 -13 34 -20 70
-7 36 -19 82 -27 102 -7 21 -11 44 -8 53 4 11 2 13 -9 9 -9 -3 -15 0 -14 8 1
33 -5 46 -23 51 -11 3 -20 3 -20 0z"></path>
<path d="M2490 881 c0 -11 9 -21 21 -24 l21 -6 -21 -27 c-21 -27 -30 -81 -11
-69 6 3 10 17 10 31 0 14 6 24 14 24 20 0 16 60 -4 61 -10 0 -11 2 -2 6 15 6
6 23 -14 23 -8 0 -14 -8 -14 -19z"></path>
<path d="M810 828 c0 -15 5 -30 11 -33 6 -4 8 -14 4 -23 -3 -8 0 -19 7 -24 10
-6 8 -12 -7 -25 -14 -11 -15 -14 -4 -10 13 4 18 -2 21 -29 2 -19 0 -34 -7 -34
-5 0 -2 -5 8 -11 9 -5 17 -21 17 -35 0 -13 11 -46 24 -72 13 -27 27 -65 31
-85 4 -21 12 -40 18 -44 6 -4 7 -1 3 8 -4 8 -1 5 8 -6 8 -11 23 -29 33 -39 13
-14 14 -17 3 -12 -8 4 -5 -1 8 -10 12 -9 22 -22 22 -28 1 -6 19 -23 41 -39 25
-17 37 -32 33 -40 -4 -6 -4 -9 0 -5 10 8 34 -13 31 -27 -1 -5 0 -7 2 -2 8 14
21 7 26 -14 3 -12 10 -18 15 -15 6 3 20 -6 32 -21 12 -16 19 -22 15 -15 -10
19 8 14 35 -11 31 -28 125 -84 116 -68 -4 6 -44 35 -89 65 -177 117 -311 271
-365 418 -16 46 -37 123 -47 173 -9 49 -23 100 -30 114 l-14 26 -1 -27z"></path>
<path d="M2634 753 c-26 -28 -25 -45 1 -23 18 15 39 50 30 50 -3 0 -17 -12
-31 -27z"></path>
<path d="M1169 633 c11 -21 11 -23 11 -63 0 -20 5 -30 15 -30 8 0 15 6 15 13
0 16 -38 97 -46 97 -2 0 0 -8 5 -17z"></path>
<path d="M2420 627 c0 -3 -9 -29 -20 -57 -11 -28 -16 -49 -11 -46 14 9 45 95
37 103 -3 3 -6 3 -6 0z"></path>
<path d="M1720 551 c33 -43 47 -54 67 -57 19 -3 43 -30 35 -39 -4 -5 -1 -5 6
-1 7 5 12 1 12 -9 0 -11 5 -15 15 -11 10 3 18 -1 23 -13 6 -17 87 -91 99 -91
12 0 -198 200 -241 228 l-48 33 32 -40z"></path>
</g>
</svg><style>@media (prefers-color-scheme: light) { :root { filter: none; } }
@media (prefers-color-scheme: dark) { :root { filter: none; } }
</style></svg>